<svg xmlns="http://www.w3.org/2000/svg" width="64" height="64" viewBox="0 0 64 64">
  <rect x="4" y="4" width="56" height="56" rx="12" fill="#0284C7"/>
  <rect x="4.75" y="4.75" width="54.5" height="54.5" rx="11.25" fill="none" stroke="#00000024" stroke-width="1.5"/>
  <rect x="17" y="12" width="30" height="40" rx="3" fill="none" stroke="#F0F9FF" stroke-width="3"/>
  <path d="M27 24c-3 0-3 4-3 4s0 4-3 4c3 0 3 4 3 4s0 4 3 4M37 24c3 0 3 4 3 4s0 4 3 4c-3 0-3 4-3 4s0 4-3 4" fill="none" stroke="#F0F9FF" stroke-width="2.5" stroke-linecap="round"/>
</svg>
